<svg xmlns="http://www.w3.org/2000/svg" xmlns:xlink="http://www.w3.org/1999/xlink" width="1080" zoomAndPan="magnify" viewBox="0 0 810 809.999993" height="1080" preserveAspectRatio="xMidYMid meet" version="1.0"><defs><clipPath id="dbe8523255"><path d="M 42.523438 0 L 246 0 L 246 666 L 42.523438 666 Z M 42.523438 0 " clip-rule="nonzero"/></clipPath><clipPath id="147703e758"><path d="M 564 87 L 767.773438 87 L 767.773438 753 L 564 753 Z M 564 87 " clip-rule="nonzero"/></clipPath></defs><g clip-path="url(#dbe8523255)"><path fill="#010101" d="M 231.394531 144.597656 L 158.882812 144.597656 L 158.882812 14.503906 C 158.882812 6.398438 152.484375 0 144.382812 0 C 136.277344 0 129.878906 6.398438 129.878906 14.503906 L 129.878906 144.597656 L 57.367188 144.597656 C 49.261719 144.597656 42.863281 150.996094 42.863281 159.097656 L 42.863281 506.304688 C 42.863281 514.40625 49.261719 520.804688 57.367188 520.804688 L 129.878906 520.804688 L 129.878906 650.902344 C 129.878906 659.003906 136.277344 665.402344 144.382812 665.402344 C 152.484375 665.402344 158.882812 659.003906 158.882812 650.902344 L 158.882812 520.804688 L 231.394531 520.804688 C 239.5 520.804688 245.898438 514.40625 245.898438 506.304688 L 245.898438 159.097656 C 245.898438 150.996094 239.5 144.597656 231.394531 144.597656 Z M 216.894531 492.226562 L 72.296875 492.226562 L 72.296875 173.601562 L 216.894531 173.601562 Z M 216.894531 492.226562 " fill-opacity="1" fill-rule="nonzero"/></g><path fill="#010101" d="M 492.011719 289.621094 L 419.5 289.621094 L 419.5 159.097656 C 419.5 150.996094 413.101562 144.597656 404.996094 144.597656 C 396.894531 144.597656 390.496094 150.996094 390.496094 159.097656 L 390.496094 289.195312 L 317.984375 289.195312 C 309.878906 289.195312 303.480469 295.59375 303.480469 303.695312 L 303.480469 650.902344 C 303.480469 659.003906 309.878906 665.402344 317.984375 665.402344 L 390.496094 665.402344 L 390.496094 795.496094 C 390.496094 803.601562 396.894531 810 404.996094 810 C 413.101562 810 419.5 803.601562 419.5 795.496094 L 419.5 665.402344 L 492.011719 665.402344 C 500.117188 665.402344 506.515625 659.003906 506.515625 650.902344 L 506.515625 304.125 C 506.515625 296.019531 500.117188 289.621094 492.011719 289.621094 Z M 477.507812 636.824219 L 332.914062 636.824219 L 332.914062 318.199219 L 477.507812 318.199219 Z M 477.507812 636.824219 " fill-opacity="1" fill-rule="nonzero"/><g clip-path="url(#147703e758)"><path fill="#010101" d="M 752.628906 231.613281 L 680.117188 231.613281 L 680.117188 101.515625 C 680.117188 93.414062 673.71875 87.015625 665.613281 87.015625 C 657.507812 87.015625 651.113281 93.414062 651.113281 101.515625 L 651.113281 231.613281 L 578.597656 231.613281 C 570.496094 231.613281 564.097656 238.007812 564.097656 246.113281 L 564.097656 593.316406 C 564.097656 601.421875 570.496094 607.820312 578.597656 607.820312 L 651.113281 607.820312 L 651.113281 737.914062 C 651.113281 746.019531 657.507812 752.417969 665.613281 752.417969 C 673.71875 752.417969 680.117188 746.019531 680.117188 737.914062 L 680.117188 607.820312 L 752.628906 607.820312 C 760.730469 607.820312 767.128906 601.421875 767.128906 593.316406 L 767.128906 246.113281 C 766.703125 238.007812 760.304688 231.613281 752.628906 231.613281 Z M 738.125 578.816406 L 593.527344 578.816406 L 593.527344 260.617188 L 738.125 260.617188 Z M 738.125 578.816406 " fill-opacity="1" fill-rule="nonzero"/></g></svg>